<svg width="13" height="13" viewBox="0 0 13 13" fill="none" xmlns="http://www.w3.org/2000/svg">
<path d="M11.2493 1.22426C10.9626 0.925247 10.4979 0.925247 10.2113 1.22426L6.75115 4.83365C6.6556 4.93332 6.50069 4.93332 6.40514 4.83365L2.94503 1.22426C2.65839 0.925247 2.19365 0.925247 1.907 1.22426L1.21498 1.94614C0.928339 2.24515 0.928339 2.72994 1.21498 3.02895L4.67509 6.63834C4.77064 6.73801 4.77064 6.89961 4.67509 6.99928L1.21498 10.6087C0.92834 10.9076 0.928339 11.3924 1.21498 11.6914L1.907 12.4133C2.19365 12.7123 2.65839 12.7123 2.94503 12.4133L6.40514 8.80397C6.50069 8.7043 6.6556 8.7043 6.75115 8.80397L10.2113 12.4133C10.4979 12.7123 10.9626 12.7123 11.2493 12.4133L11.9413 11.6914C12.228 11.3924 12.228 10.9076 11.9413 10.6087L8.48121 6.99928C8.38566 6.89961 8.38566 6.73801 8.48121 6.63834L11.9413 3.02895C12.228 2.72994 12.228 2.24515 11.9413 1.94614L11.2493 1.22426Z" fill="#323751" stroke="#323751" stroke-width="0.5"/>
</svg>
